<svg width="119" height="40" viewBox="0 0 119 40" fill="none" xmlns="http://www.w3.org/2000/svg">
<path d="M18.6209 23.2564H11.7664C11.7664 23.18 11.7664 23.12 11.7664 23.0545C11.7664 22.1213 11.7664 21.1881 11.7664 20.2548C11.7664 19.8019 11.4444 19.469 11.0241 19.4635C10.6039 19.4635 10.2765 19.78 10.2765 20.2057C10.2765 21.1499 10.2765 22.094 10.2765 23.0381C10.2765 23.1036 10.2765 23.1746 10.2765 23.2673C10.1073 23.2673 9.95448 23.2564 9.80167 23.2673C9.47423 23.2946 9.14132 23.2946 8.83025 23.3819C7.91885 23.6384 7.2585 24.5007 7.23667 25.4449C7.22575 25.8815 7.2203 26.329 7.29124 26.7601C7.41676 27.5132 7.89156 28.0317 8.57374 28.3537C8.71564 28.4192 8.7593 28.4956 8.7593 28.6484C8.75384 29.9254 8.75384 31.2079 8.7593 32.485C8.76476 34.084 9.88353 35.5739 11.4171 36.0323C11.5317 36.0651 11.6517 36.0924 11.7773 36.1251V38.4936C11.7172 38.4936 11.6627 38.5046 11.6026 38.5046C9.66523 38.5046 7.72784 38.5046 5.79044 38.5046C4.64438 38.5046 3.73844 37.806 3.47648 36.72C3.43282 36.5344 3.42191 36.3325 3.42191 36.136C3.42191 30.886 3.42191 25.6413 3.42191 20.3913C3.42191 20.2821 3.45465 20.2166 3.54197 20.1566C7.38402 17.5861 11.2261 15.0157 15.0681 12.4398C15.1773 12.3688 15.2428 12.3797 15.3464 12.4452C18.0915 14.2898 20.8421 16.1345 23.5872 17.9736C24.6732 18.6995 25.7538 19.4253 26.8398 20.1457C26.9381 20.2112 26.9817 20.2767 26.9817 20.4022C26.9817 25.6413 26.9708 30.875 26.9817 36.1142C26.9817 37.2166 26.2668 38.1826 25.219 38.4282C25.0171 38.4773 24.8097 38.4991 24.6023 38.4991C22.6649 38.4991 20.7275 38.4991 18.7901 38.5046C18.6482 38.5046 18.5991 38.4773 18.5991 38.3245C18.61 37.6477 18.6045 36.9655 18.5991 36.2888C18.5991 36.1688 18.6318 36.1142 18.7519 36.0814C20.2636 35.6994 21.366 34.4824 21.5952 32.9434C21.6225 32.7579 21.6334 32.5614 21.6334 32.3704C21.6334 31.1097 21.6334 29.8436 21.6334 28.5829C21.6334 28.4792 21.6662 28.4246 21.7589 28.381C22.6267 27.988 23.096 27.3113 23.1506 26.3672C23.1779 25.8815 23.1997 25.3903 23.0578 24.9155C22.8013 24.0314 21.9772 23.2673 20.8312 23.2728C20.6565 23.2728 20.4819 23.2619 20.3073 23.2728C20.1545 23.2837 20.1108 23.2401 20.1108 23.0818C20.1163 22.1431 20.1108 21.2044 20.1108 20.2657C20.1108 19.9328 19.9798 19.6818 19.6687 19.5399C19.183 19.3161 18.6209 19.6709 18.6155 20.2057C18.6155 21.1553 18.6155 22.1049 18.6155 23.0545C18.6155 23.12 18.6155 23.18 18.6155 23.2619L18.6209 23.2564Z" fill="#FDE614"/>
<path d="M15.1936 27.0766C13.3108 27.0766 11.428 27.0766 9.54515 27.0766C9.05944 27.0766 8.74836 26.7819 8.73199 26.2962C8.72108 26.0343 8.72108 25.7778 8.73199 25.5158C8.74836 25.0847 9.07581 24.7736 9.50695 24.7736C13.2999 24.7736 17.0928 24.7736 20.8857 24.7736C21.306 24.7736 21.6334 25.0847 21.6498 25.5049C21.6607 25.7778 21.6607 26.0561 21.6498 26.3344C21.6389 26.7601 21.306 27.0766 20.8748 27.0766C18.9811 27.0766 17.0874 27.0766 15.1936 27.0766Z" fill="#FDE614"/>
<path d="M0.00555504 18.2083C-0.0108173 17.7771 0.223854 17.4333 0.622248 17.1659C2.8598 15.676 5.0919 14.1752 7.324 12.6799C9.889 10.9662 12.454 9.24715 15.0135 7.52805C15.1445 7.44073 15.2264 7.43527 15.3574 7.52805C18.097 9.36721 20.8421 11.2064 23.5872 13.0455C25.6338 14.4154 27.6858 15.7906 29.7323 17.155C30.0106 17.3406 30.2289 17.5752 30.3162 17.9027C30.4527 18.4211 30.3545 18.8905 29.9506 19.2507C29.5358 19.6218 28.9628 19.6927 28.488 19.4253C28.106 19.207 27.7458 18.9505 27.3801 18.7104C23.4944 16.1126 19.6087 13.5094 15.723 10.9117C15.341 10.6552 15.0354 10.6552 14.6479 10.9117C12.3121 12.4725 9.97632 14.0333 7.64053 15.5996C5.79045 16.8385 3.94038 18.0773 2.0903 19.3161C1.63733 19.6218 1.16254 19.6927 0.665907 19.4308C0.218396 19.1852 -0.00535999 18.7977 9.74634e-05 18.2192L0.00555504 18.2083Z" fill="#FDE614"/>
<path d="M17.5348 6.00542C17.7586 5.67251 17.9714 5.35052 18.1952 5.03399C18.2061 5.01762 18.3098 5.03399 18.348 5.06128C19.0247 5.51425 19.7014 5.96722 20.3781 6.42018C22.5666 7.8937 24.7496 9.36721 26.938 10.8353C28.2423 11.7139 29.5467 12.5926 30.851 13.4712C30.8892 13.4985 30.9274 13.5258 30.982 13.564C30.7528 13.9024 30.529 14.2353 30.2889 14.59C26.043 11.7303 21.7971 8.87604 17.5294 5.99996L17.5348 6.00542Z" fill="#FDE614"/>
<path d="M27.6203 15.1139C27.1728 15.1139 26.7962 14.7319 26.8071 14.2898C26.818 13.8369 27.1891 13.4767 27.6366 13.4767C28.0787 13.4767 28.4607 13.8587 28.4553 14.3007C28.4553 14.7537 28.0787 15.1194 27.6203 15.1194V15.1139Z" fill="#FDE614"/>
<path d="M17.835 8.34121C17.835 7.88278 18.1897 7.52259 18.6427 7.51714C19.0957 7.51714 19.4668 7.87187 19.4722 8.31938C19.4777 8.77235 19.1066 9.14891 18.6482 9.14891C18.1897 9.14891 17.8295 8.79418 17.8295 8.33575L17.835 8.34121Z" fill="#FDE614"/>
<path d="M10.2546 28.5829H10.4674C13.6164 28.5829 16.7708 28.5829 19.9197 28.5829C20.0689 28.5829 20.1435 28.6575 20.1435 28.8067C20.1435 29.9746 20.1435 31.1425 20.1435 32.3103C20.1435 33.4673 19.434 34.3787 18.3371 34.6352C18.1624 34.6734 17.9824 34.6898 17.8023 34.6898C16.0668 34.6898 14.3313 34.6898 12.5958 34.6898C11.2806 34.6898 10.271 33.7293 10.2437 32.4195C10.2219 31.1752 10.2382 29.9254 10.2437 28.6811C10.2437 28.6593 10.2437 28.6375 10.2546 28.5884V28.5829Z" fill="#FDE614"/>
<path d="M17.0874 36.207V38.4991C17.0328 38.4991 16.9782 38.51 16.9182 38.51C15.7667 38.51 14.6151 38.51 13.4636 38.51C13.3217 38.51 13.2835 38.4718 13.2835 38.3299C13.289 37.675 13.2835 37.0256 13.2835 36.3707C13.2835 36.3161 13.2835 36.267 13.2835 36.207H17.0874Z" fill="#FDE614"/>
<path d="M33.3833 7.69723C31.9971 7.70269 30.8347 6.56754 30.8019 5.21955C30.7746 3.86064 31.8006 2.56722 33.3833 2.56722C34.8623 2.56722 35.921 3.74604 35.9374 5.06128C35.9592 6.54025 34.8295 7.69177 33.3778 7.69723H33.3833Z" fill="#FDE614"/>
<path d="M29.4867 4.81569C29.6122 4.81569 29.7432 4.81569 29.8687 4.81569C30.087 4.82115 30.2343 4.95213 30.2343 5.13223C30.2343 5.31232 30.087 5.44876 29.8741 5.45422C29.6122 5.45422 29.3557 5.45422 29.0937 5.45422C28.8754 5.45422 28.7335 5.32324 28.7335 5.13768C28.7335 4.94667 28.87 4.82661 29.0883 4.81569C29.0883 4.81569 29.0992 4.81569 29.1046 4.81569C29.2302 4.81569 29.3611 4.81569 29.4867 4.81569Z" fill="#FDE614"/>
<path d="M37.2635 5.45422C37.1271 5.45422 36.9852 5.45422 36.8488 5.45422C36.6523 5.44331 36.5159 5.31233 36.5104 5.14315C36.5104 4.96851 36.6468 4.82116 36.8488 4.82116C37.1216 4.8157 37.4 4.8157 37.6728 4.82116C37.8748 4.82116 38.0057 4.95759 38.0057 5.13223C38.0057 5.31233 37.8748 5.44331 37.6674 5.45968C37.6565 5.45968 37.6455 5.45968 37.6346 5.45968C37.5091 5.45968 37.3781 5.45968 37.2526 5.45968L37.2635 5.45422Z" fill="#FDE614"/>
<path d="M31.244 7.63174C31.2222 7.66994 31.1894 7.75726 31.1349 7.81729C30.9438 8.01922 30.7474 8.21023 30.5509 8.40124C30.4036 8.54313 30.2289 8.54859 30.0979 8.42307C29.9724 8.30301 29.967 8.112 30.0979 7.9701C30.2944 7.76272 30.4963 7.56079 30.7037 7.36433C30.8019 7.27155 30.922 7.23335 31.053 7.29338C31.1731 7.35341 31.2385 7.44619 31.244 7.63174Z" fill="#FDE614"/>
<path d="M35.5117 2.63817C35.5335 2.60543 35.5663 2.51811 35.6208 2.45262C35.8119 2.25069 36.0029 2.05968 36.2048 1.86867C36.3521 1.72678 36.5268 1.72678 36.6578 1.8523C36.7833 1.97236 36.7833 2.16883 36.6523 2.30527C36.4558 2.51265 36.2484 2.71458 36.0465 2.91104C35.9483 3.00928 35.8282 3.03657 35.6972 2.97653C35.5772 2.92196 35.5117 2.82373 35.5171 2.63272L35.5117 2.63817Z" fill="#FDE614"/>
<path d="M31.2712 2.73095C31.2057 2.80735 31.1566 2.92742 31.0693 2.96016C30.9765 2.99836 30.8183 2.99291 30.7528 2.93833C30.5072 2.73095 30.2834 2.49628 30.0651 2.26161C29.956 2.147 29.9887 1.95053 30.1033 1.84684C30.2234 1.73769 30.3871 1.72678 30.5072 1.84138C30.7364 2.05422 30.9547 2.27798 31.1675 2.50174C31.2112 2.55085 31.2276 2.63271 31.2712 2.73641V2.73095Z" fill="#FDE614"/>
<path d="M36.7723 8.2266C36.7068 8.30847 36.6577 8.41216 36.5704 8.47219C36.4667 8.55405 36.3357 8.53222 36.2484 8.4449C36.0137 8.22115 35.7845 7.99739 35.5662 7.76272C35.4571 7.64811 35.4844 7.46802 35.599 7.35887C35.7136 7.24426 35.8773 7.21698 35.9974 7.33158C36.232 7.54988 36.4558 7.78455 36.6796 8.01376C36.7178 8.05742 36.7287 8.12291 36.7723 8.22115V8.2266Z" fill="#FDE614"/>
<path d="M33.6835 1.24106C33.6835 1.38842 33.6835 1.53577 33.6835 1.68312C33.6835 1.86321 33.5471 1.99419 33.3724 1.99419C33.1978 1.99419 33.0668 1.86321 33.0668 1.68312C33.0668 1.39387 33.0668 1.09917 33.0668 0.809925C33.0668 0.618914 33.1869 0.509766 33.3779 0.509766C33.5689 0.509766 33.678 0.624371 33.6835 0.815382C33.6835 0.815382 33.6835 0.826298 33.6835 0.831755C33.6835 0.968192 33.6835 1.10463 33.6835 1.24652V1.24106Z" fill="#FDE614"/>
<path d="M33.6835 9.02339C33.6835 9.17075 33.6835 9.3181 33.6835 9.47091C33.6835 9.66192 33.5634 9.76561 33.367 9.76561C33.1814 9.76561 33.0723 9.65646 33.0668 9.47091C33.0668 9.18166 33.0668 8.88696 33.0668 8.59771C33.0668 8.41216 33.1978 8.28664 33.3779 8.28664C33.558 8.28664 33.678 8.41216 33.6835 8.59771C33.6835 8.73961 33.6835 8.8815 33.6835 9.02885V9.02339Z" fill="#FDE614"/>
<path d="M43.4578 26.7055L45.4388 29.2214C44.9258 29.7235 44.32 30.111 43.6269 30.3729C42.9338 30.6349 42.1971 30.7659 41.4058 30.7659C40.6144 30.7659 39.8668 30.6349 39.1573 30.3729C38.4478 30.111 37.8202 29.7344 37.2799 29.2378C36.7396 28.7411 36.3085 28.1408 35.9865 27.4368C35.6645 26.7328 35.5008 25.9306 35.5008 25.0465C35.5008 24.1623 35.6645 23.3601 35.9865 22.6561C36.3085 21.9521 36.7451 21.3463 37.2908 20.8551C37.8366 20.3585 38.4642 19.9819 39.1737 19.72C39.8831 19.458 40.6308 19.327 41.4058 19.327C42.2735 19.327 43.0539 19.4962 43.747 19.8291C44.4401 20.162 45.0022 20.6259 45.4334 21.2208L43.4523 23.3874C43.2122 23.1036 42.9175 22.858 42.5737 22.6452C42.2298 22.4323 41.8424 22.3286 41.4058 22.3286C41.1056 22.3286 40.8054 22.3887 40.5107 22.5033C40.216 22.6179 39.9595 22.7925 39.7358 23.0272C39.512 23.2619 39.3374 23.5457 39.201 23.884C39.0645 24.2224 38.999 24.6153 38.999 25.0574C38.999 25.4994 39.0645 25.8924 39.201 26.2307C39.3374 26.5691 39.5175 26.8529 39.7358 27.0875C39.9595 27.3222 40.216 27.4968 40.5107 27.6115C40.8054 27.7261 41.1001 27.7861 41.4058 27.7861C41.8696 27.7861 42.268 27.6933 42.6009 27.5132C42.9338 27.3331 43.2176 27.0712 43.4468 26.7273L43.4578 26.7055Z" fill="#FDE614"/>
<path d="M51.1636 19.3161C51.9495 19.3161 52.7026 19.4471 53.4121 19.7091C54.1216 19.971 54.7492 20.3476 55.2895 20.8442C55.8298 21.3408 56.2609 21.9412 56.5829 22.6452C56.9049 23.3492 57.0686 24.1514 57.0686 25.0355C57.0686 25.9196 56.9049 26.7219 56.5829 27.4259C56.2609 28.1299 55.8298 28.7357 55.2895 29.2269C54.7492 29.7235 54.1216 30.1001 53.4121 30.362C52.7026 30.624 51.9495 30.7549 51.1636 30.7549C50.3778 30.7549 49.6246 30.624 48.9152 30.362C48.2057 30.1001 47.5781 29.7235 47.0378 29.2269C46.4975 28.7302 46.0664 28.1299 45.7444 27.4259C45.4224 26.7219 45.2587 25.9196 45.2587 25.0355C45.2696 24.146 45.4333 23.3492 45.7608 22.6452C46.0828 21.9412 46.5139 21.3354 47.0542 20.8442C47.5945 20.3476 48.2166 19.971 48.9261 19.7091C49.6301 19.4471 50.3778 19.3161 51.1691 19.3161H51.1636ZM48.7569 25.041C48.7569 25.483 48.8224 25.876 48.9588 26.2143C49.0953 26.5527 49.2754 26.8365 49.4937 27.0712C49.7174 27.3058 49.9739 27.4805 50.2686 27.5951C50.5633 27.7097 50.858 27.7697 51.1636 27.7697C51.4693 27.7697 51.7749 27.7097 52.0641 27.5951C52.3534 27.4805 52.6044 27.3058 52.8282 27.0712C53.0519 26.8365 53.232 26.5527 53.3685 26.2143C53.5049 25.876 53.5704 25.483 53.5704 25.041C53.5704 24.5989 53.5049 24.206 53.3685 23.8676C53.232 23.5293 53.0519 23.2455 52.8282 23.0108C52.6044 22.7761 52.3534 22.607 52.0641 22.4869C51.7749 22.3723 51.4747 22.3123 51.1636 22.3123C50.8526 22.3123 50.5633 22.3723 50.2686 22.4869C49.9739 22.6015 49.7174 22.7761 49.4937 23.0108C49.2699 23.2455 49.0953 23.5293 48.9588 23.8676C48.8224 24.206 48.7569 24.5989 48.7569 25.041Z" fill="#FDE614"/>
<path d="M58.433 30.493V19.589H61.7948V23.4802H64.1087V19.589H67.4705V30.493H64.1087V26.2089H61.7948V30.493H58.433Z" fill="#FDE614"/>
<path d="M69.6535 19.589H73.0153V27.7643H75.3347V19.589H78.6965V27.7643H79.788V31.9447L76.9283 32.5341V30.4875H69.659V19.5835L69.6535 19.589Z" fill="#FDE614"/>
<path d="M81.0105 30.493V19.589H88.3398L87.7504 22.3123H84.3286V23.6166H87.4775L86.9154 26.2089H84.3231V27.7697H88.3344L87.745 30.4984H81.005L81.0105 30.493Z" fill="#FDE614"/>
<path d="M89.7041 30.493V19.589H97.6993L97.1099 22.3123H93.0223V23.693H94.2938C94.8614 23.693 95.3853 23.753 95.871 23.8676C96.3568 23.9822 96.777 24.1733 97.1372 24.4298C97.4974 24.6863 97.7757 25.0246 97.9831 25.4448C98.1905 25.8651 98.2942 26.3835 98.2942 26.9948C98.2942 27.6606 98.1905 28.2172 97.9831 28.6702C97.7757 29.1177 97.4919 29.4779 97.1372 29.7508C96.777 30.0236 96.3568 30.2147 95.871 30.3238C95.3853 30.433 94.8614 30.493 94.2938 30.493H89.7041ZM93.0223 26.1489V27.9062H93.628C94.0701 27.9062 94.3866 27.8243 94.5667 27.666C94.7468 27.5023 94.8396 27.284 94.8396 27.0002C94.8396 26.7656 94.7468 26.5691 94.5667 26.3999C94.3866 26.2307 94.0701 26.1489 93.628 26.1489H93.0223Z" fill="#FDE614"/>
<path d="M108.603 19.589L105.121 28.0863C104.778 28.9267 104.363 29.5816 103.872 30.0564C103.38 30.5312 102.715 30.7659 101.863 30.7659C101.421 30.7659 101.05 30.7386 100.755 30.6895C100.461 30.6403 100.204 30.5748 99.9805 30.493L100.706 27.7533C100.837 27.8352 101.001 27.9007 101.192 27.9553C101.383 28.0098 101.552 28.0371 101.694 28.0371C101.945 28.0371 102.109 27.9716 102.18 27.8352C102.251 27.6988 102.245 27.5514 102.163 27.3877L98.6489 19.589H102.087L103.828 23.9823L105.176 19.589H108.603Z" fill="#FDE614"/>
<path d="M118.989 31.9447L116.129 32.5341V30.4875H110.661V32.5341L107.801 31.9447V27.7643H108.287C108.44 27.7643 108.576 27.7042 108.702 27.5896C108.827 27.475 108.936 27.3167 109.029 27.1257C109.122 26.9347 109.193 26.711 109.242 26.4599C109.291 26.2089 109.318 25.9415 109.318 25.6577V19.5835H117.903V27.7588H118.994V31.9392L118.989 31.9447ZM114.536 22.3123H112.489V25.9033C112.489 26.4763 112.44 26.8965 112.347 27.1585C112.249 27.4204 112.134 27.6224 111.992 27.7643H114.536V22.3123Z" fill="#FDE614"/>
</svg>
