<svg width="48" height="49" viewBox="0 0 48 49" fill="none" xmlns="http://www.w3.org/2000/svg">
<path d="M42 11.4863V39.9863H6V9.98633H40.5C40.8978 9.98633 41.2794 10.1444 41.5607 10.4257C41.842 10.707 42 11.0885 42 11.4863Z" fill="#FDE614"/>
<path d="M43.5 39.9863C43.5 40.3842 43.342 40.7657 43.0607 41.047C42.7794 41.3283 42.3978 41.4863 42 41.4863H6C5.60218 41.4863 5.22064 41.3283 4.93934 41.047C4.65804 40.7657 4.5 40.3842 4.5 39.9863V9.98633C4.5 9.5885 4.65804 9.20697 4.93934 8.92567C5.22064 8.64436 5.60218 8.48633 6 8.48633C6.39782 8.48633 6.77936 8.64436 7.06066 8.92567C7.34196 9.20697 7.5 9.5885 7.5 9.98633V12.3657L18 22.8657L22.9387 17.9251C23.0781 17.7856 23.2435 17.675 23.4256 17.5995C23.6077 17.524 23.8029 17.4851 24 17.4851C24.1971 17.4851 24.3923 17.524 24.5744 17.5995C24.7565 17.675 24.9219 17.7856 25.0613 17.9251L36 28.8657V24.9863C36 24.5885 36.158 24.207 36.4393 23.9257C36.7206 23.6444 37.1022 23.4863 37.5 23.4863C37.8978 23.4863 38.2794 23.6444 38.5607 23.9257C38.842 24.207 39 24.5885 39 24.9863V32.4863C39.0029 32.5363 39.0029 32.5864 39 32.6363C39 32.657 39 32.6757 38.9906 32.6963C38.9813 32.717 38.9906 32.7526 38.9775 32.7826C38.9734 32.8061 38.9678 32.8292 38.9606 32.852C38.9606 32.8763 38.9494 32.9007 38.9419 32.9251C38.9344 32.9495 38.9269 32.9682 38.9194 32.9907L38.8931 33.0638L38.865 33.122C38.8537 33.1463 38.8425 33.1726 38.8294 33.197C38.8162 33.2213 38.8088 33.2307 38.7994 33.2495L38.7544 33.3226L38.715 33.3751L38.6663 33.4407C38.6456 33.467 38.6213 33.4913 38.5988 33.5157L38.5687 33.5495L38.5369 33.5776C38.512 33.6022 38.4857 33.6254 38.4581 33.647C38.4389 33.6636 38.4189 33.6793 38.3981 33.6938L38.3419 33.7351L38.2706 33.7782C38.2525 33.7899 38.2337 33.8006 38.2144 33.8101L38.145 33.8457L38.0813 33.8738L38.0138 33.8982C37.9906 33.908 37.9668 33.9161 37.9425 33.9226L37.875 33.9413C37.8488 33.9413 37.8263 33.9545 37.8 33.9582L37.7212 33.9713L37.6556 33.9807C37.6063 33.9835 37.5568 33.9835 37.5075 33.9807H30C29.6022 33.9807 29.2206 33.8227 28.9393 33.5414C28.658 33.2601 28.5 32.8785 28.5 32.4807C28.5 32.0829 28.658 31.7013 28.9393 31.42C29.2206 31.1387 29.6022 30.9807 30 30.9807H33.8794L24 21.107L19.0613 26.0476C18.9219 26.187 18.7565 26.2977 18.5744 26.3732C18.3923 26.4487 18.1971 26.4875 18 26.4875C17.8029 26.4875 17.6077 26.4487 17.4256 26.3732C17.2435 26.2977 17.0781 26.187 16.9387 26.0476L7.5 16.607V38.4863H42C42.3978 38.4863 42.7794 38.6444 43.0607 38.9257C43.342 39.207 43.5 39.5885 43.5 39.9863Z" fill="#282828"/>
</svg>
