<svg width="49" height="49" viewBox="0 0 49 49" fill="none" xmlns="http://www.w3.org/2000/svg">
<path d="M41 24.9863C41 28.2497 40.0323 31.4398 38.2193 34.1532C36.4062 36.8666 33.8293 38.9815 30.8143 40.2303C27.7993 41.4792 24.4817 41.8059 21.281 41.1693C18.0803 40.5326 15.1403 38.9612 12.8327 36.6536C10.5252 34.346 8.95371 31.406 8.31705 28.2053C7.68039 25.0046 8.00715 21.687 9.256 18.6721C10.5048 15.6571 12.6197 13.0801 15.3331 11.2671C18.0465 9.45404 21.2366 8.48633 24.5 8.48633C28.8761 8.48633 33.0729 10.2247 36.1673 13.3191C39.2616 16.4134 41 20.6103 41 24.9863Z" fill="#FDE614"/>
<path d="M26.0011 15.9865V24.1371L32.7736 28.2003C33.1148 28.4051 33.3605 28.7371 33.4569 29.1232C33.5532 29.5093 33.4923 29.9179 33.2874 30.259C33.0825 30.6001 32.7505 30.8459 32.3644 30.9423C31.9783 31.0386 31.5698 30.9776 31.2286 30.7728L23.7286 26.2728C23.5066 26.1394 23.323 25.9508 23.1955 25.7254C23.068 25.5 23.001 25.2455 23.0011 24.9865V15.9865C23.0011 15.5887 23.1592 15.2072 23.4405 14.9259C23.7218 14.6445 24.1033 14.4865 24.5011 14.4865C24.8989 14.4865 25.2805 14.6445 25.5618 14.9259C25.8431 15.2072 26.0011 15.5887 26.0011 15.9865ZM42.5011 11.4865C42.1033 11.4865 41.7218 11.6445 41.4405 11.9259C41.1592 12.2072 41.0011 12.5887 41.0011 12.9865V16.3615C39.8105 14.9815 38.5955 13.6521 37.2286 12.2684C34.7271 9.76659 31.5438 8.05744 28.0764 7.35449C24.6091 6.65155 21.0115 6.98598 17.7331 8.31601C14.4547 9.64604 11.641 11.9127 9.6435 14.8327C7.64599 17.7528 6.55328 21.1967 6.5019 24.7342C6.45052 28.2717 7.44275 31.7459 9.35461 34.7227C11.2665 37.6996 14.0132 40.047 17.2515 41.4716C20.4899 42.8963 24.0763 43.3351 27.5626 42.7332C31.0489 42.1312 34.2805 40.5152 36.8536 38.0871C36.9969 37.9517 37.1122 37.7894 37.1927 37.6094C37.2733 37.4295 37.3176 37.2354 37.3232 37.0383C37.3288 36.8412 37.2955 36.645 37.2252 36.4607C37.1549 36.2765 37.049 36.1079 36.9136 35.9646C36.7782 35.8213 36.6159 35.7061 36.4359 35.6255C36.256 35.545 36.0619 35.5006 35.8648 35.4951C35.6677 35.4895 35.4714 35.5228 35.2872 35.5931C35.103 35.6633 34.9344 35.7692 34.7911 35.9046C32.6462 37.926 29.9533 39.2707 27.0487 39.7708C24.1441 40.2709 21.1566 39.9043 18.4591 38.7166C15.7617 37.529 13.4739 35.573 11.8815 33.0929C10.289 30.6128 9.46248 27.7186 9.50508 24.7715C9.54769 21.8245 10.4575 18.9554 12.121 16.5223C13.7845 14.0893 16.1279 12.2003 18.8585 11.0911C21.5891 9.98192 24.5861 9.70177 27.475 10.2856C30.3639 10.8695 33.0168 12.2915 35.1024 14.374C36.6286 15.919 37.9655 17.4078 39.3136 18.9865H35.0011C34.6033 18.9865 34.2218 19.1445 33.9405 19.4259C33.6592 19.7072 33.5011 20.0887 33.5011 20.4865C33.5011 20.8843 33.6592 21.2659 33.9405 21.5472C34.2218 21.8285 34.6033 21.9865 35.0011 21.9865H42.5011C42.8989 21.9865 43.2805 21.8285 43.5618 21.5472C43.8431 21.2659 44.0011 20.8843 44.0011 20.4865V12.9865C44.0011 12.5887 43.8431 12.2072 43.5618 11.9259C43.2805 11.6445 42.8989 11.4865 42.5011 11.4865Z" fill="#282828"/>
</svg>
